<svg width="19" height="19" viewBox="0 0 19 19" fill="none" xmlns="http://www.w3.org/2000/svg">
<path d="M6.53009 18.0833C5.81279 18.0833 5.21503 17.8442 4.73683 17.366C4.25796 16.8865 4.01852 16.2884 4.01852 15.5718C4.01852 15.2664 4.00412 15.0105 3.97532 14.8042C3.94652 14.5979 3.87452 14.4379 3.75932 14.324C3.64547 14.2088 3.48539 14.1305 3.27911 14.0889C3.07283 14.0474 2.81698 14.0263 2.51157 14.0256C1.79427 14.0256 1.19651 13.7929 0.71831 13.3274C0.239437 12.8619 0 12.2705 0 11.5532C0 10.8359 0.239437 10.2382 0.71831 9.75998C1.19718 9.28177 1.79494 9.04234 2.51157 9.04167C2.78081 9.04167 3.03599 9.07582 3.2771 9.14414C3.51821 9.21245 3.72282 9.31493 3.89093 9.45156C4.07176 9.59287 4.28106 9.66353 4.51882 9.66353C4.75659 9.66353 4.95952 9.57981 5.12763 9.41238L9.33502 5.20499C9.50246 5.03755 9.59924 4.8249 9.62536 4.56705C9.65148 4.30919 9.59354 4.08382 9.45156 3.89093C9.32765 3.70943 9.22819 3.50147 9.15318 3.26706C9.07817 3.03264 9.041 2.78081 9.04167 2.51157C9.04167 1.79427 9.2811 1.19651 9.75998 0.71831C10.2382 0.239437 10.8359 0 11.5532 0C12.2705 0 12.8686 0.239437 13.3475 0.71831C13.8264 1.19718 14.0655 1.79494 14.0648 2.51157C14.0648 2.81698 14.0792 3.07283 14.108 3.27911C14.1368 3.48539 14.2088 3.64547 14.324 3.75932C14.4379 3.87452 14.5983 3.94652 14.8052 3.97532C15.0122 4.00412 15.2677 4.01852 15.5718 4.01852C16.2891 4.01852 16.8872 4.25796 17.366 4.73683C17.8442 5.21503 18.0833 5.81279 18.0833 6.53009C18.0833 7.2474 17.8442 7.84549 17.366 8.32436C16.8878 8.80324 16.2897 9.04234 15.5718 9.04167C15.3025 9.04167 15.0507 9.0045 14.8163 8.93015C14.5819 8.85581 14.3739 8.75635 14.1924 8.63178C13.9995 8.50319 13.7805 8.4486 13.5354 8.46802C13.2909 8.48745 13.085 8.58088 12.9175 8.74831L8.74831 12.9175C8.58088 13.085 8.4841 13.2812 8.45798 13.5062C8.43186 13.7313 8.47706 13.9473 8.5936 14.1542C8.70411 14.3351 8.80658 14.5494 8.90102 14.7972C8.99478 15.0443 9.04167 15.3025 9.04167 15.5718C9.04167 16.2891 8.80256 16.8872 8.32436 17.366C7.84482 17.8442 7.24673 18.0833 6.53009 18.0833ZM7.61007 16.6517C7.89471 16.3671 8.03704 16.0071 8.03704 15.5718C8.03704 15.4211 8.01627 15.2747 7.97475 15.1327C7.93322 14.9907 7.87027 14.8524 7.78588 14.7178C7.52669 14.3294 7.41618 13.9014 7.45435 13.4339C7.49119 12.9671 7.68542 12.5579 8.03704 12.2062L12.2062 8.03704C12.5579 7.68542 12.9671 7.4942 13.4339 7.46339C13.9007 7.43258 14.3287 7.54008 14.7178 7.78588C14.8518 7.8696 14.9901 7.93256 15.1327 7.97475C15.2754 8.01694 15.4217 8.03771 15.5718 8.03704C16.0071 8.03704 16.3671 7.89471 16.6517 7.61007C16.9364 7.32542 17.0787 6.96543 17.0787 6.53009C17.0787 6.09475 16.9364 5.73476 16.6517 5.45012C16.3671 5.16547 16.0071 5.02315 15.5718 5.02315C15.0889 5.02315 14.6947 4.9843 14.3893 4.90661C14.0839 4.82825 13.825 4.68291 13.6127 4.4706C13.4004 4.25829 13.2551 3.99943 13.1767 3.69402C13.0984 3.38862 13.0595 2.99447 13.0602 2.51157C13.0602 2.07623 12.9179 1.71624 12.6332 1.4316C12.3486 1.14695 11.9886 1.00463 11.5532 1.00463C11.1179 1.00463 10.7579 1.14695 10.4733 1.4316C10.1886 1.71624 10.0463 2.07623 10.0463 2.51157C10.0463 2.67031 10.0664 2.81866 10.1066 2.95662C10.1468 3.09459 10.2104 3.23089 10.2975 3.36551C10.5566 3.75397 10.6672 4.18194 10.629 4.64943C10.5921 5.11624 10.3979 5.52546 10.0463 5.87708L5.87708 10.0463C5.52546 10.3979 5.11624 10.5891 4.64943 10.6199C4.18261 10.6507 3.75464 10.5433 3.36551 10.2975C3.23156 10.2137 3.09359 10.1511 2.9516 10.1096C2.80961 10.0681 2.66294 10.047 2.51157 10.0463C2.07623 10.0463 1.71624 10.1886 1.4316 10.4733C1.14695 10.7579 1.00463 11.1179 1.00463 11.5532C1.00463 11.9886 1.14695 12.3422 1.4316 12.6141C1.71624 12.886 2.07623 13.022 2.51157 13.022C2.99447 13.022 3.38862 13.0672 3.69402 13.1576C3.99943 13.2487 4.25829 13.4004 4.4706 13.6127C4.68291 13.825 4.82825 14.0903 4.90661 14.4084C4.98497 14.7265 5.02382 15.1277 5.02315 15.6119C5.02315 16.0473 5.16547 16.4006 5.45012 16.6718C5.73476 16.9431 6.09475 17.0787 6.53009 17.0787C6.96543 17.0787 7.32542 16.9364 7.61007 16.6517Z" fill="#FFFDF0" fill-opacity="0.4"/>
</svg>
