<?xml version="1.0" encoding="UTF-8"?>
<svg id="uuid-958b805d-0be6-407b-be36-0a346c18cc1d" data-name="Capa 2" xmlns="http://www.w3.org/2000/svg" viewBox="0 0 18.41 22.35">
  <g id="uuid-6af4887c-94c5-43d7-9d86-e0b2bc462720" data-name="Capa 1">
    <g>
      <path d="M16.11,21.25c-1.16.47-2.7.72-4.33.72s-3.17-.26-4.33-.72c-1.24-.5-1.92-1.19-1.92-1.96,0-.6.42-1.16,1.21-1.61.71-.41,1.7-.72,2.84-.9l.08.54c-2.11.33-3.59,1.14-3.59,1.97,0,.52.58,1.04,1.58,1.45,1.1.44,2.56.68,4.13.68s3.03-.24,4.13-.68c1-.4,1.58-.93,1.58-1.45,0-.77-1.28-1.54-3.19-1.9l.1-.54c2.25.43,3.64,1.37,3.64,2.44,0,.76-.68,1.46-1.92,1.96Z" style="fill: #211915; stroke: #211915; stroke-miterlimit: 10; stroke-width: .75px;"/>
      <path d="M12.05,19.37V.65c0-.15-.12-.28-.28-.28s-.28.12-.28.28v1.52c-1.01-.21-2.14-.33-3.19.09-.84.33-1.5.95-2.13,1.55-.6.57-1.17,1.11-1.88,1.41-1.13.48-2.5.28-3.61.12-.11-.02-.23.04-.28.14-.06.1-.04.22.03.31,1.2,1.41,2.33,2.6,3.91,3,.82.21,1.66.16,2.48.11.84-.05,1.63-.1,2.39.11.48.13.96.38,1.42.61.28.14.57.29.86.41v9.33c0,.15.12.28.28.28s.28-.12.28-.28ZM11.5,2.73v6.71c-.2-.09-.4-.2-.61-.3-.49-.25-.99-.5-1.53-.65-.84-.23-1.72-.18-2.56-.13-.81.05-1.58.09-2.31-.09-1.22-.31-2.18-1.19-3.15-2.27,1.01.13,2.15.18,3.17-.26.8-.34,1.43-.94,2.05-1.52.62-.59,1.21-1.15,1.96-1.44.96-.38,2.04-.25,2.99-.04Z" style="fill: #211915; stroke: #211915; stroke-miterlimit: 10; stroke-width: .75px;"/>
    </g>
  </g>
</svg>