<?xml version="1.0" encoding="UTF-8"?>
<svg id="uuid-56023d2f-a394-4d7e-ab81-04738c93e78e" data-name="Capa 1" xmlns="http://www.w3.org/2000/svg" viewBox="0 0 300 300">
  <path d="M.89,121.61v17.23c3.52,15.24,9.28,29.98,21.41,40.83,14.01,12.53,35.34,18.21,48.31,1.03,16.98-22.48,5.54-59.23-13.85-76.23-8.27-7.25-18.96-12.64-30.12-11.33-15.93,1.87-21.95,16.63-25.76,28.47Z"/>
  <path d="M299.11,141.49v-13.25c-1.89-9.76-5.35-19.44-12.76-24.23-9.44-6.1-19.96-7.08-29.78-2.07-26.75,13.65-41.52,45.13-33.33,74.01,2.37,8.34,8.97,14.63,14.33,17.47,8.87,4.7,17.1,2.74,25.35-.91,20.98-9.27,31.97-29.42,36.19-51.03Z"/>
  <path d="M193.68,115.83c30.62-2.16,53.52-48.42,41.12-84.54-4.17-12.14-14.32-22.68-27.12-23.45-31.75-1.9-58.04,46.91-43.86,85.59,4.63,12.64,15.46,23.41,29.87,22.39Z"/>
  <path d="M112.53,165.66l119.97,119.97c-25.43,22.87-61.84-14.67-99.65-9.42-25.6,3.55-37.99,17.79-60.41,17.05-8.57-.28-16.31-4.02-21.12-9.78-14.88-17.8,3.19-49.5,14.29-66.56,12.56-19.32,27.78-39.53,46.92-51.26Z"/>
  <path d="M67.13,31.81c.37-1.1.76-2.18,1.18-3.25,4.87-12.19,16.19-22.07,29.29-21.96,12.66.11,23.51,8.23,30.75,18.19,14.66,20.15,19.52,53.17,6.07,74.32L67.13,31.81Z"/>
  <rect x="133.79" y="-37.88" width="28.83" height="383.17" rx="14.41" ry="14.41" transform="translate(-65.28 149.82) rotate(-45)"/>
</svg>