<?xml version="1.0" encoding="UTF-8"?>
<svg id="uuid-7d5afb10-d154-4336-99b8-2bfa9b823fa2" data-name="Capa 1" xmlns="http://www.w3.org/2000/svg" viewBox="0 0 250 250">
  <path d="M246.79,101.86v14.07c-2.88,12.45-7.58,24.48-17.49,33.35-11.44,10.24-28.87,14.87-39.46.84-13.87-18.36-4.52-48.38,11.31-62.27,6.76-5.92,15.49-10.33,24.6-9.26,13.01,1.53,17.93,13.59,21.04,23.26Z"/>
  <path d="M3.21,118.1v-10.83c1.54-7.97,4.37-15.88,10.42-19.79,7.71-4.98,16.31-5.78,24.32-1.69,21.85,11.15,33.91,36.86,27.22,60.45-1.93,6.81-7.33,11.95-11.71,14.27-7.24,3.84-13.96,2.23-20.7-.74-17.13-7.57-26.11-24.03-29.56-41.68Z"/>
  <path d="M188.35,242.06c-18.31.6-28.43-11.03-49.34-13.93-31.25-4.33-61.31,27.1-82.11,7.03-4.8-4.63-8.77-12.42-7.62-20.27,2.88-19.64,11.49-36.82,22.41-53.11,10.37-15.46,24.86-26.22,43.04-30.61,36.73-8.87,61.28,20.96,79.21,48.54,9.06,13.94,23.82,39.83,11.67,54.37-3.93,4.7-10.25,7.76-17.25,7.99Z"/>
  <path d="M186.72,78.6c-8.26,13.5-25.53,25.69-41.44,13.28-19.86-15.48-16.81-50.17-2.13-69.72,5.89-7.85,14.6-14.17,24.65-14.24,10.7-.08,19.94,7.98,23.92,17.94,6.86,17.16,4.59,37.07-5,52.74Z"/>
  <path d="M89.32,97.14c-25.01-1.76-43.72-39.54-33.59-69.05,3.41-9.92,11.69-18.53,22.15-19.15,25.93-1.55,47.41,38.32,35.83,69.91-3.78,10.33-12.62,19.12-24.39,18.29Z"/>
</svg>