<?xml version="1.0" encoding="UTF-8"?>
<svg id="uuid-d890b769-0fe6-4c61-80e4-57827495a80b" data-name="Capa 2" xmlns="http://www.w3.org/2000/svg" viewBox="0 0 69.19 79.9">
  <g id="uuid-a5c3fa58-7bc2-4a5a-9f6f-b9608403a24e" data-name="Capa 1">
    <path d="M69.19,64.46c-8.51,9.48-20.85,15.44-34.59,15.44s-26.09-5.96-34.59-15.44c1.07-2.71,3.37-4.11,5.07-4.8h0s.06-.02.09-.04c11.84-4.74,17.28-9.11,18.97-10.66.39-.36.63-.85.66-1.37l.24-3.75c.04-.57-.17-1.13-.56-1.54-.07-.09-.16-.19-.27-.29l-1.32-1.38c-1.51-1.94-2.12-4.13-2.12-4.13-.27-1.23-.37-2.38-.41-3.14-.02-.42-.03-.72-.03-.85v-.02s.04.09.04.09v-.05s-.02-.03-.03-.04c-2.22.08-2.71-2.49-2.71-2.49-.04-.84-.03-2.01-.03-2.01,0-.42.08-.81.03-1.23-.14-1.08-.32-2.04.08-3.09.08-.22.2-.46.41-.57.17-.09.37-.09.57-.09-.16-.85-.32-1.7-.49-2.56-.22-1.14-.43-2.28-.65-3.41-.01-.55-.01-1.09,0-1.61-.01-.05,0-.1,0-.14,1.46-3.95,2.08-7.56,5.09-10.9C25.71.98,29.13.18,33.48.03c.37-.01.74-.02,1.11-.03h0c.37,0,.74.01,1.11.03,4.35.16,7.77.96,10.84,4.36,3.01,3.34,3.63,6.96,5.09,10.9.01.04.02.08,0,.14.02.52.02,1.07,0,1.61-.22,1.14-.43,2.28-.65,3.41-.16.85-.32,1.7-.49,2.56.19,0,.4,0,.57.09.21.11.33.35.41.57.4,1.05.21,2.02.08,3.09-.05.42.03.82.03,1.23,0,0,.01,1.17-.03,2.01,0,0-.5,2.56-2.72,2.49,0,.01-.02.03-.03.04v.05s.03-.09.03-.09v.02c.01.12.01.43-.01.85-.04.76-.15,1.91-.41,3.14,0,0-.61,2.2-2.12,4.13l-1.32,1.38c-.12.1-.21.19-.27.29-.39.41-.6.97-.56,1.54l.24,3.75c.03.53.27,1.02.66,1.37,1.69,1.55,7.14,5.91,18.97,10.66.03.01.06.02.09.04,1.7.69,4,2.09,5.07,4.8Z"/>
  </g>
</svg>